<svg width="20" height="18" viewBox="0 0 20 18" fill="none" xmlns="http://www.w3.org/2000/svg">
<path d="M9.58332 5.66667H16.83C17.3508 5.66667 17.6108 5.66667 17.8017 5.75C18.645 6.1225 18.2683 7.05833 18.1267 7.73167C18.1135 7.7925 18.0862 7.84941 18.0472 7.89787C18.0081 7.94634 17.9583 7.98502 17.9017 8.01083C17.668 8.11847 17.4635 8.28059 17.3055 8.4836C17.1474 8.6866 17.0404 8.92456 16.9933 9.1775L16.4992 11.99C16.2825 13.2275 16.2075 14.995 15.1242 15.8667C14.3283 16.5 13.1825 16.5 10.89 16.5H9.10999C6.81832 16.5 5.67166 16.5 4.87666 15.8667C3.79249 14.995 3.71832 13.2275 3.50082 11.99L3.00666 9.1775C2.9596 8.92456 2.85256 8.6866 2.6945 8.4836C2.53645 8.28059 2.332 8.11847 2.09832 8.01083C2.04169 7.98502 1.99185 7.94634 1.95279 7.89787C1.91373 7.84941 1.88652 7.7925 1.87332 7.73167C1.73166 7.05917 1.35499 6.1225 2.19832 5.75083C2.38916 5.66667 2.64999 5.66667 3.16999 5.66667H6.24999M11.6667 9H8.33332M5.41666 8.16667L8.33332 1.5M12.5 1.5L14.5833 5.66667" stroke="#47862D" stroke-width="1.5" stroke-linecap="round" stroke-linejoin="round"/>
</svg>
