<svg width="18" height="18" viewBox="0 0 18 18" fill="none" xmlns="http://www.w3.org/2000/svg">
<path fill-rule="evenodd" clip-rule="evenodd" d="M7.7325 1.6875H10.2675C10.4302 1.6875 10.572 1.6875 10.7055 1.7085C10.9655 1.75016 11.2122 1.8521 11.4258 2.00616C11.6394 2.16023 11.8139 2.36214 11.9355 2.59575C11.9985 2.71575 12.0427 2.85 12.0945 3.00375L12.1777 3.255L12.2003 3.31875C12.2681 3.50712 12.3945 3.66881 12.5609 3.78015C12.7273 3.89149 12.925 3.94663 13.125 3.9375H15.375C15.5242 3.9375 15.6673 3.99676 15.7727 4.10225C15.8782 4.20774 15.9375 4.35082 15.9375 4.5C15.9375 4.64918 15.8782 4.79226 15.7727 4.89775C15.6673 5.00324 15.5242 5.0625 15.375 5.0625H2.625C2.47582 5.0625 2.33274 5.00324 2.22725 4.89775C2.12176 4.79226 2.0625 4.64918 2.0625 4.5C2.0625 4.35082 2.12176 4.20774 2.22725 4.10225C2.33274 3.99676 2.47582 3.9375 2.625 3.9375H4.9425C5.14283 3.9327 5.33634 3.86383 5.49467 3.741C5.653 3.61817 5.7678 3.44785 5.82225 3.255L5.90625 3.00375C5.95725 2.85 6.0015 2.71575 6.06375 2.59575C6.18539 2.36205 6.36007 2.16008 6.57379 2.00601C6.78751 1.85194 7.03433 1.75005 7.2945 1.7085C7.428 1.6875 7.56975 1.6875 7.73175 1.6875M6.75525 3.9375C6.80719 3.83404 6.85107 3.72672 6.8865 3.6165L6.9615 3.3915C7.02975 3.18675 7.0455 3.1455 7.06125 3.1155C7.10174 3.03751 7.15994 2.97008 7.23118 2.91864C7.30242 2.86719 7.38473 2.83315 7.4715 2.81925C7.56925 2.81059 7.66746 2.80834 7.7655 2.8125H10.233C10.449 2.8125 10.494 2.814 10.527 2.82C10.6137 2.83382 10.696 2.86775 10.7672 2.91906C10.8384 2.97037 10.8967 3.03765 10.9373 3.1155C10.953 3.1455 10.9688 3.18675 11.037 3.39225L11.112 3.61725L11.1412 3.70125C11.1707 3.78325 11.2048 3.862 11.2432 3.9375H6.75525Z" fill="#EB2F28"/>
<path d="M4.43601 6.33763C4.42607 6.18874 4.35739 6.0499 4.24507 5.95166C4.13276 5.85341 3.98602 5.80381 3.83714 5.81375C3.68825 5.8237 3.54942 5.89238 3.45117 6.00469C3.35292 6.117 3.30332 6.26374 3.31326 6.41263L3.66126 11.6266C3.72501 12.5881 3.77676 13.3651 3.89826 13.9756C4.02501 14.6094 4.23951 15.1389 4.68351 15.5536C5.12751 15.9684 5.66976 16.1484 6.31101 16.2316C6.92751 16.3126 7.70601 16.3126 8.67051 16.3126H9.32976C10.2935 16.3126 11.0728 16.3126 11.6893 16.2316C12.3298 16.1484 12.8728 15.9691 13.3168 15.5536C13.76 15.1389 13.9745 14.6086 14.1013 13.9756C14.2228 13.3659 14.2738 12.5881 14.3383 11.6266L14.6863 6.41263C14.6962 6.26374 14.6466 6.117 14.5484 6.00469C14.4501 5.89238 14.3113 5.8237 14.1624 5.81375C14.0135 5.80381 13.8668 5.85341 13.7545 5.95166C13.6421 6.0499 13.5735 6.18874 13.5635 6.33763L13.2185 11.5126C13.151 12.5229 13.103 13.2264 12.998 13.7551C12.8953 14.2689 12.7528 14.5404 12.548 14.7324C12.3425 14.9244 12.062 15.0489 11.543 15.1164C11.0083 15.1861 10.3033 15.1876 9.29001 15.1876H8.70951C7.69701 15.1876 6.99201 15.1861 6.45651 15.1164C5.93751 15.0489 5.65701 14.9244 5.45151 14.7324C5.24676 14.5404 5.10426 14.2689 5.00151 13.7559C4.89651 13.2264 4.84851 12.5229 4.78101 11.5119L4.43601 6.33763Z" fill="#EB2F28"/>
<path d="M7.06856 7.69031C7.21693 7.67544 7.36515 7.72009 7.48061 7.81446C7.59607 7.90883 7.66934 8.04519 7.68431 8.19356L8.05931 11.9436C8.07029 12.0899 8.02367 12.2347 7.92939 12.3471C7.83511 12.4595 7.70064 12.5307 7.55465 12.5453C7.40866 12.56 7.26272 12.5171 7.14795 12.4257C7.03318 12.3343 6.95867 12.2016 6.94031 12.0561L6.56531 8.30606C6.55044 8.15768 6.59509 8.00946 6.68946 7.894C6.78383 7.77854 6.92019 7.70527 7.06856 7.69031ZM10.9311 7.69031C11.0793 7.70527 11.2155 7.77844 11.3099 7.89373C11.4042 8.00903 11.449 8.15705 11.4343 8.30531L11.0593 12.0553C11.0407 12.2006 10.9662 12.3329 10.8515 12.4241C10.7369 12.5153 10.5912 12.5582 10.4455 12.5436C10.2997 12.529 10.1654 12.4582 10.071 12.3462C9.97671 12.2341 9.9298 12.0897 9.9403 11.9436L10.3153 8.19356C10.3303 8.04533 10.4034 7.9091 10.5187 7.81475C10.634 7.7204 10.7828 7.67565 10.9311 7.69031Z" fill="#EB2F28"/>
</svg>
