<svg width="120" height="120" viewBox="0 0 120 120" fill="none" xmlns="http://www.w3.org/2000/svg">
<path d="M57.5 40.0039H100.98C104.105 40.0039 105.665 40.0039 106.81 40.5039C111.87 42.7389 109.61 48.3539 108.76 52.3939C108.681 52.7589 108.518 53.1004 108.283 53.3911C108.049 53.6819 107.75 53.914 107.41 54.0689C106.008 54.7147 104.781 55.6875 103.833 56.9055C102.885 58.1235 102.242 59.5513 101.96 61.0689L98.995 77.9439C97.695 85.3689 97.245 95.9739 90.745 101.204C85.97 105.004 79.095 105.004 65.34 105.004H54.66C40.91 105.004 34.03 105.004 29.26 101.204C22.755 95.9739 22.31 85.3689 21.005 77.9439L18.04 61.0689C17.7577 59.5513 17.1154 58.1235 16.1671 56.9055C15.2188 55.6875 13.9921 54.7147 12.59 54.0689C12.2502 53.914 11.9512 53.6819 11.7168 53.3911C11.4825 53.1004 11.3192 52.7589 11.24 52.3939C10.39 48.3589 8.13004 42.7389 13.19 40.5089C14.335 40.0039 15.9 40.0039 19.02 40.0039H37.5M70 60.0039H50M32.5 55.0039L50 15.0039M75 15.0039L87.5 40.0039" stroke="#B58D00" stroke-width="8" stroke-linecap="round" stroke-linejoin="round"/>
</svg>
