<svg width="24" height="24" viewBox="0 0 24 24" fill="none" xmlns="http://www.w3.org/2000/svg">
<path d="M7 21L7 18M7 18C6.068 18 5.602 18 5.235 17.848C4.99218 17.7475 4.77155 17.6001 4.58572 17.4143C4.3999 17.2284 4.25251 17.0078 4.152 16.765C4 16.398 4 15.932 4 15C4 14.068 4 13.602 4.152 13.235C4.25251 12.9922 4.3999 12.7716 4.58572 12.5857C4.77155 12.3999 4.99218 12.2525 5.235 12.152C5.602 12 6.068 12 7 12C7.932 12 8.398 12 8.765 12.152C9.00782 12.2525 9.22845 12.3999 9.41428 12.5857C9.6001 12.7716 9.74749 12.9922 9.848 13.235C10 13.602 10 14.068 10 15C10 15.932 10 16.398 9.848 16.765C9.74749 17.0078 9.6001 17.2284 9.41428 17.4143C9.22845 17.6001 9.00782 17.7475 8.765 17.848C8.398 18 7.932 18 7 18ZM17 21L17 15M17 6V3M17 6C16.068 6 15.602 6 15.235 6.152C14.9922 6.25251 14.7716 6.3999 14.5857 6.58572C14.3999 6.77155 14.2525 6.99218 14.152 7.235C14 7.602 14 8.068 14 9C14 9.932 14 10.398 14.152 10.765C14.2525 11.0078 14.3999 11.2284 14.5857 11.4143C14.7716 11.6001 14.9922 11.7475 15.235 11.848C15.602 12 16.068 12 17 12C17.932 12 18.398 12 18.765 11.848C19.0078 11.7475 19.2284 11.6001 19.4143 11.4143C19.6001 11.2284 19.7475 11.0078 19.848 10.765C20 10.398 20 9.932 20 9C20 8.068 20 7.602 19.848 7.235C19.7475 6.99218 19.6001 6.77155 19.4143 6.58572C19.2284 6.3999 19.0078 6.25251 18.765 6.152C18.398 6 17.932 6 17 6ZM7 9L7 3" stroke="#0A0A0A" stroke-width="1.5" stroke-linecap="round" stroke-linejoin="round"/>
</svg>
