<svg width="20" height="22" viewBox="0 0 20 22" fill="none" xmlns="http://www.w3.org/2000/svg">
<path d="M4.57799 14.482C3.16299 15.324 -0.547008 17.044 1.71299 19.197C2.81599 20.248 4.04499 21 5.58999 21H14.408C15.954 21 17.183 20.248 18.286 19.197C20.546 17.044 16.836 15.324 15.421 14.482C13.7788 13.5119 11.9064 13.0001 9.99899 13.0001C8.09163 13.0001 6.2202 13.5119 4.57799 14.482ZM14.5 5.5C14.5 6.69347 14.0259 7.83807 13.182 8.68198C12.3381 9.52589 11.1935 10 9.99999 10C8.80652 10 7.66193 9.52589 6.81801 8.68198C5.9741 7.83807 5.49999 6.69347 5.49999 5.5C5.49999 4.30653 5.9741 3.16193 6.81801 2.31802C7.66193 1.47411 8.80652 1 9.99999 1C11.1935 1 12.3381 1.47411 13.182 2.31802C14.0259 3.16193 14.5 4.30653 14.5 5.5Z" stroke="#7C7C7C" stroke-width="1.5" stroke-linecap="round" stroke-linejoin="round"/>
</svg>
