<svg width="20" height="20" viewBox="0 0 20 20" fill="none" xmlns="http://www.w3.org/2000/svg">
<path d="M5.83334 17.5L8.33334 14.1667M13.3333 17.5L11.6667 14.1667L9.16668 11.6667L10 6.66667M10 3.33333C10 3.55435 10.0878 3.76631 10.2441 3.92259C10.4004 4.07887 10.6123 4.16667 10.8333 4.16667C11.0544 4.16667 11.2663 4.07887 11.4226 3.92259C11.5789 3.76631 11.6667 3.55435 11.6667 3.33333C11.6667 3.11232 11.5789 2.90036 11.4226 2.74408C11.2663 2.5878 11.0544 2.5 10.8333 2.5C10.6123 2.5 10.4004 2.5878 10.2441 2.74408C10.0878 2.90036 10 3.11232 10 3.33333Z" stroke="#FEFEFE" stroke-width="1.3" stroke-linecap="round" stroke-linejoin="round"/>
<path d="M5 9.99935L6.66667 7.49935L10 6.66602L12.5 9.16602L15 9.99935" stroke="#FEFEFE" stroke-width="1.3" stroke-linecap="round" stroke-linejoin="round"/>
</svg>
